<svg xmlns="http://www.w3.org/2000/svg" viewBox="0 0 240 240"><defs><style>.a{fill:#fff;}.b{fill:#828282;}.c{fill:none;stroke:#000;stroke-miterlimit:10;}.d{fill:#ff1717;}</style></defs><title>ginpei</title><path class="a" d="M60.11,119.95c1-1.77-11.23-17.36-10.81-20.66,1-7.66,5.84-15.92,8-18.46C59.62,78,69,64.94,71,63.87s8.49,2.94,9.79,4.48,12.67,2.06,12.67,2.06h0c6.41,5.34,12.81,61.33,12.81,74.14h0c0,10.66,0,39.29-14.58,50.39l-.4.29s-.74,6,0,7.56,16.51,7.71,15.92,11.27c-.18,1.07,0,2.83-2.49,3.32-5.89,1.15-17.44,0-17.44,0l1.19.83c3.44,1.3,5.69,6.26-5.34,7.21s-19.86-5.71-20-6.14.27-7.13,0-7.71-4-4.48-4-4.48l-3.5,6c.24-.72,1.2-11,1.25-11.63.36-5.22.76-8.68-.66-10.93s-2.14-6.51-1.78-11.84l.81-.07c3-.49,5.54-3.58,7.18-6.6,2.06-3.8,2.54-22.18,2.54-22.18.47-13.64-2.89-20.64-3.72-24.67-.29-1.42-.74-3-1-4.86Z"/><path class="b" d="M83.35,71.36c4.72,3.14,12.08.89,14.24-4.35.6-1.47.84-3.07,1.5-4.51,1.58-3.44,5.32-5.39,9-6.33,4-1,9-1.92,10-5.88s-3.72-7.59-7.92-7.43-8,2.54-11.92,3.93c-8.86,3.1-18.57,1.25-27.95.81a3,3,0,0,0-3.73,2.29,130.16,130.16,0,0,0-7.14,26.68,23.55,23.55,0,0,1-1.5,6.19,23.36,23.36,0,0,1-4.24,5.7,144.1,144.1,0,0,0-11.85,15.05,26.81,26.81,0,0,0-4.39,8.71c-1.11,4.66.11,9.51.86,14.24a74.69,74.69,0,0,1,.46,20.2c-1.15,10.12-4.36,20.4-1.94,30.29,1.19,4.87,3.69,9.3,5.7,13.89a73.08,73.08,0,0,1,6,25.74,2.36,2.36,0,0,0,.46,1.57c.64.67,1.78.33,2.55-.18,2.52-1.69,3.79-4.67,4.93-7.48,2-4.94,4-10,4.54-15.26s-.7-11-4.41-14.84c4.44-3.05,6.21-8.69,7.26-14a102.37,102.37,0,0,0-2.08-48.32l8.39-5.47a6.74,6.74,0,0,0,2.16-1.9,6.44,6.44,0,0,0,.71-3.27,69.86,69.86,0,0,0-2.37-20.29c-.36-1.35-.74-2.88,0-4.05.6-.92,1.73-1.33,2.54-2.07,2.27-2.1,1.12-6.08-1.19-8.14s-2.87-1.21-5.41-3c1.79-3.12,3.85-5.07,7.12-3.58s5.9,4.14,9.15,5.68"/><path class="b" d="M62.92,216.16c3.86-.87,7.63-2,11.41-3.23l2.93-.91a122.67,122.67,0,0,0,13.44-4.77,12,12,0,0,0,4.17-2.69,3.64,3.64,0,0,1,1.38-1.2,2.7,2.7,0,0,1,1.61.12,24.53,24.53,0,0,1,11.15,7,24.68,24.68,0,0,1-4.34,6.59,8.35,8.35,0,0,1-7.17,2.58,4.35,4.35,0,0,0-1.47-.18c-1.51.23-1.85,2.21-2.64,3.52-1.29,2.14-4.12,2.63-6.6,2.92l-9,1a23,23,0,0,1-6.77.1,11.76,11.76,0,0,1-9.09-8.63"/><path class="c" d="M59.12,207.1s3.69,3.9,4,4.48-.19,7.28,0,7.71,9,7.09,20,6.14,8.78-5.9,5.34-7.21-10.08-6-10-8.66c0-1,2.34-3,3-4.39a6.13,6.13,0,0,0,0-5.34,11.48,11.48,0,0,1-2.25-3.2,15.48,15.48,0,0,1-.83-4.86"/><path class="c" d="M80.94,199.24c25.32-3.08,25.32-41.87,25.32-54.68s-6.41-68.8-12.81-74.14c0,0,3.32-10.1,6.88-11.76"/><path class="c" d="M90.12,63.18s20.4-8.9,25.74-12.34.71-6.17-6.64-4.39S98.31,49.66,93.45,50s-19-2.37-23.37,2.25-4.86,14.47-4.86,17.2c0,0-12.46,17.08-14.23,21.94s-8.18,36.77-9,60.38c-.52,14.75,5.22,33.31,11.15,45.67,0,0-2.19,19.58-1.66,19.93s7.95-7.59,8.3-12.81-2.14-11.74-3.56-14-2.14-6.51-1.78-11.84"/><path class="c" d="M60.11,119.95c1-1.77,8.07-8,10-10.74s-1.54-15.3,1.54-21.47S75.56,81,74,77.21c-1.6-3.92-1.87-1.49-4.24-4.1S70,66.33,72,65.27s4.22-.81,4.81,2.27.29,1.34,1.59,2.88,15.06,0,15.06,0"/><path class="c" d="M61.66,108c-3.32,7.59-1.26,13.17-.43,17.2s4.2,11,3.72,24.67c0,0-.48,18.39-2.54,22.18s-5.62,7.71-9.54,6.41c.59-7.95,1.66-22.06,0-26.57s-4.15-10.79-4.15-14"/><path class="c" d="M91.29,195.24s-.74,6,0,7.56,16.51,7.71,15.92,11.27c-.18,1.07,0,2.83-2.49,3.32-5.89,1.15-17.44,0-17.44,0"/><ellipse cx="79.64" cy="55.18" rx="2.18" ry="1.57" transform="translate(-13.1 27.13) rotate(-17.89)"/><path class="d" d="M207.6,51.07c.51-3.18,2-5.68,2.22-9a61,61,0,0,0-.18-10.87c-.72-6.07-3.33-9.49-8.26-13-9.66-6.79-24.93-4.3-29.93,7.13-2.16,4.93-2.84,13,.44,17.67,2.87,4.06,8.39,4.46,12.53,2.24,2.14-1.15,3.91-3,5.81-4.43,1.62-1.25,3.17-2.47,3.7-4.57,1-3.88-2.14-9-5.13-11.35s-7.29,1.87-4.24,4.24c1.66,1.3,4.08,4.34,2.65,6.5-.78,1.18-4.07,3.44-5.15,4.09-6.34,3.79-6.85-5.36-5.94-9.43a11.4,11.4,0,0,1,7-8.51c6.7-2.64,16.34-1.09,19.69,6.19,1.52,3.3,1.18,7.78,1.09,11.33a22,22,0,0,1-.75,6,30,30,0,0,0-1.35,4.12c-.61,3.78,5.17,5.4,5.79,1.6Z"/><path class="d" d="M221.76,35.69c4.71-.57,9.36.17,12.43-4.21,2.22-3.17-3-6.17-5.18-3-1.25,1.78-5.45,1-7.25,1.24a3.09,3.09,0,0,0-3,3c0,1.47,1.38,3.19,3,3Z"/><path class="d" d="M214.62,17a19.36,19.36,0,0,1,2-6.22,43.08,43.08,0,0,0,1.76-5.42c1.26-3.66-4.54-5.23-5.79-1.6-.35,1-.43,2.07-.76,3.07s-1,2-1.41,3A25.19,25.19,0,0,0,208.62,17c-.48,3.82,5.53,3.79,6,0Z"/><path class="d" d="M189.74,10.9a28.13,28.13,0,0,1,.55-3.08,13.35,13.35,0,0,0-.15-4.94,3,3,0,0,0-3.69-2.1,3.06,3.06,0,0,0-2.1,3.69c.42,2.14-.5,4.06-.62,6.42-.19,3.86,5.81,3.85,6,0Z"/><path class="d" d="M155.24,6.75a71.39,71.39,0,0,0,4.05,6.41,12.46,12.46,0,0,0,2.33,2.36,11.09,11.09,0,0,1,2.28,1.79c2.26,3.08,7.47.09,5.18-3-1.32-1.8-3.23-2.68-4.68-4.3-1.61-1.81-2.73-4.2-4-6.26-2-3.3-7.19-.28-5.18,3Z"/><path class="d" d="M147.09,31.33a15,15,0,0,1,11.31,3.35c3,2.39,7.25-1.82,4.24-4.24-4.53-3.63-9.67-5.68-15.55-5.11-3.81.37-3.85,6.37,0,6Z"/><path class="d" d="M155.53,52.53a56,56,0,0,1,10.58,1.33c3.76.84,5.37-4.94,1.6-5.79a64.81,64.81,0,0,0-12.17-1.54c-3.86-.12-3.86,5.88,0,6Z"/><path class="d" d="M174.76,68a42.28,42.28,0,0,0,5.54-5.14c1.51-1.66,3-4,4.9-5.24,3.25-2.07.24-7.26-3-5.18-4.12,2.62-6.56,7.39-10.44,10.38a3.11,3.11,0,0,0-1.08,4.1c.72,1.27,2.82,2.06,4.1,1.08Z"/><path class="d" d="M194.14,59.64c.19,3.13-.28,6.28.23,9.39s2.25,4.81,3.87,7.37c2.06,3.25,7.26.24,5.18-3-1.37-2.16-3-3.42-3.26-6.1-.26-2.53.13-5.1,0-7.64-.23-3.84-6.24-3.86-6,0Z"/><path class="d" d="M210,53.71c4.94,2.78,10.11,5.16,13.7,9.69,2.39,3,6.61-1.24,4.24-4.24C224,54.23,218.37,51.55,213,48.53c-3.37-1.9-6.4,3.28-3,5.18Z"/></svg>