<svg style="position: absolute; width: 0; height: 0; overflow: hidden;" version="1.1" xmlns="http://www.w3.org/2000/svg" xmlns:xlink="http://www.w3.org/1999/xlink">
<defs>
<symbol id="icon-ginpei" viewBox="0 0 32 32">
<title>ginpei</title>
<path class="path1" fill="#fff" d="M8.015 15.993c0.133-0.236-1.497-2.315-1.441-2.755 0.133-1.021 0.779-2.123 1.067-2.461 0.309-0.377 1.56-2.119 1.827-2.261s1.132 0.392 1.305 0.597 1.689 0.275 1.689 0.275v0c0.855 0.712 1.708 8.177 1.708 9.885v0c0 1.421 0 5.239-1.944 6.719l-0.053 0.039s-0.099 0.8 0 1.008 2.201 1.028 2.123 1.503c-0.024 0.143 0 0.377-0.332 0.443-0.785 0.153-2.325 0-2.325 0l0.159 0.111c0.459 0.173 0.759 0.835-0.712 0.961s-2.648-0.761-2.667-0.819 0.036-0.951 0-1.028-0.533-0.597-0.533-0.597l-0.467 0.8c0.032-0.096 0.16-1.467 0.167-1.551 0.048-0.696 0.101-1.157-0.088-1.457s-0.285-0.868-0.237-1.579l0.108-0.009c0.4-0.065 0.739-0.477 0.957-0.88 0.275-0.507 0.339-2.957 0.339-2.957 0.063-1.819-0.385-2.752-0.496-3.289-0.039-0.189-0.099-0.4-0.133-0.648z"></path>
<path class="path2" fill="#828282" d="M11.113 9.515c0.629 0.419 1.611 0.119 1.899-0.58 0.080-0.196 0.112-0.409 0.2-0.601 0.211-0.459 0.709-0.719 1.2-0.844 0.533-0.133 1.2-0.256 1.333-0.784s-0.496-1.012-1.056-0.991-1.067 0.339-1.589 0.524c-1.181 0.413-2.476 0.167-3.727 0.108-0.032-0.009-0.068-0.014-0.106-0.014-0.192 0-0.353 0.136-0.391 0.317-0.408 1.023-0.739 2.22-0.939 3.46-0.045 0.404-0.116 0.684-0.221 0.946-0.149 0.271-0.337 0.521-0.558 0.739-0.544 0.602-1.063 1.256-1.539 1.943-0.295 0.394-0.495 0.781-0.621 1.2-0.154 0.647 0.008 1.293 0.108 1.924 0.079 0.472 0.125 1.017 0.125 1.571 0 0.395-0.023 0.785-0.068 1.169-0.149 1.303-0.577 2.673-0.254 3.992 0.159 0.649 0.492 1.24 0.76 1.852 0.451 1.007 0.739 2.178 0.799 3.41 0 0.029 0 0.037 0 0.044 0 0.071 0.023 0.136 0.063 0.188 0.085 0.088 0.237 0.043 0.339-0.025 0.336-0.225 0.505-0.623 0.657-0.997 0.267-0.659 0.533-1.333 0.605-2.035s-0.093-1.467-0.588-1.979c0.592-0.407 0.828-1.159 0.968-1.867 0.165-0.797 0.26-1.713 0.26-2.651 0-1.351-0.196-2.656-0.562-3.888l1.143-0.633c0.115-0.065 0.211-0.15 0.286-0.251 0.062-0.117 0.097-0.252 0.097-0.396 0-0.015-0-0.030-0.001-0.044 0.003-0.082 0.004-0.182 0.004-0.282 0-0.861-0.117-1.695-0.336-2.487-0.033-0.115-0.083-0.319 0.015-0.475 0.080-0.123 0.231-0.177 0.339-0.276 0.303-0.28 0.149-0.811-0.159-1.085s-0.383-0.161-0.721-0.4c0.239-0.416 0.513-0.676 0.949-0.477s0.787 0.552 1.22 0.757z"></path>
<path class="path3" fill="#828282" d="M8.389 28.821c0.515-0.116 1.017-0.267 1.521-0.431l0.391-0.121c0.726-0.211 1.321-0.428 1.898-0.677 0.111-0.043 0.296-0.165 0.45-0.318 0.047-0.068 0.109-0.122 0.181-0.159 0.027-0.007 0.056-0.011 0.085-0.011 0.048 0 0.094 0.009 0.135 0.026 0.589 0.178 1.091 0.502 1.482 0.93-0.151 0.34-0.345 0.63-0.578 0.884-0.202 0.215-0.491 0.351-0.811 0.351-0.050 0-0.1-0.003-0.148-0.010-0.044-0.015-0.102-0.024-0.162-0.024-0.010 0-0.020 0-0.030 0.001-0.2 0.031-0.245 0.295-0.351 0.469-0.172 0.285-0.549 0.351-0.88 0.389l-1.2 0.133c-0.149 0.026-0.321 0.040-0.496 0.040-0.143 0-0.284-0.010-0.423-0.029-0.578-0.12-1.044-0.565-1.194-1.138z"></path>
<path class="path4" fill="#000" d="M10.895 7.268c0.036 0.11-0.060 0.239-0.212 0.288s-0.305 0-0.341-0.11c-0.036-0.11 0.060-0.239 0.212-0.288s0.305-0 0.341 0.11z"></path>
<path class="path5" fill="#ff1717" d="M27.68 6.809c0.068-0.424 0.267-0.757 0.296-1.2 0.014-0.177 0.021-0.383 0.021-0.591 0-0.303-0.017-0.601-0.049-0.895-0.093-0.773-0.441-1.229-1.098-1.697-1.288-0.905-3.324-0.573-3.991 0.951-0.288 0.657-0.379 1.733 0.059 2.356 0.383 0.541 1.119 0.595 1.671 0.299 0.285-0.153 0.521-0.4 0.775-0.591 0.216-0.167 0.423-0.329 0.493-0.609 0.133-0.517-0.285-1.2-0.684-1.513s-0.972 0.249-0.565 0.565c0.221 0.173 0.544 0.579 0.353 0.867-0.104 0.157-0.543 0.459-0.687 0.545-0.845 0.505-0.913-0.715-0.792-1.257 0.099-0.52 0.453-0.94 0.923-1.131 0.904-0.356 2.189-0.149 2.636 0.822 0.203 0.44 0.157 1.037 0.145 1.511 0 0.012 0 0.026 0 0.040 0 0.27-0.037 0.532-0.105 0.781-0.059 0.13-0.121 0.313-0.169 0.501-0.087 0.532 0.683 0.748 0.766 0.241z"></path>
<path class="path6" fill="#ff1717" d="M29.568 4.759c0.628-0.076 1.248 0.023 1.657-0.561 0.296-0.423-0.4-0.823-0.691-0.4-0.167 0.237-0.727 0.133-0.967 0.165-0.218 0.006-0.394 0.182-0.4 0.399 0 0.197 0.184 0.426 0.4 0.401z"></path>
<path class="path7" fill="#ff1717" d="M28.616 2.267c0.045-0.31 0.139-0.589 0.273-0.843 0.075-0.181 0.155-0.421 0.219-0.669 0.177-0.528-0.597-0.737-0.763-0.253-0.047 0.133-0.057 0.276-0.101 0.409s-0.133 0.267-0.188 0.4c-0.119 0.279-0.204 0.603-0.239 0.942-0.065 0.524 0.736 0.52 0.799 0.014z"></path>
<path class="path8" fill="#ff1717" d="M25.299 1.453c0.020-0.16 0.045-0.3 0.079-0.436 0.008-0.057 0.016-0.153 0.016-0.251 0-0.135-0.015-0.268-0.044-0.394-0.046-0.159-0.2-0.282-0.384-0.282-0.038 0-0.074 0.005-0.109 0.015-0.168 0.051-0.29 0.206-0.29 0.391 0 0.036 0.005 0.070 0.013 0.104 0.055 0.282-0.067 0.538-0.083 0.853-0.025 0.515 0.775 0.513 0.8 0z"></path>
<path class="path9" fill="#ff1717" d="M20.699 0.9c0.189 0.336 0.367 0.615 0.56 0.883 0.071 0.091 0.173 0.194 0.287 0.283 0.119 0.072 0.219 0.151 0.307 0.241 0.302 0.411 0.996 0.012 0.691-0.4-0.176-0.24-0.431-0.357-0.624-0.573-0.215-0.241-0.364-0.56-0.533-0.835-0.267-0.44-0.959-0.037-0.691 0.4z"></path>
<path class="path10" fill="#ff1717" d="M19.612 4.177c0.070-0.009 0.15-0.013 0.232-0.013 0.487 0 0.933 0.174 1.279 0.463 0.397 0.316 0.963-0.245 0.562-0.568-0.604-0.484-1.289-0.757-2.073-0.681-0.508 0.049-0.513 0.849 0 0.8z"></path>
<path class="path11" fill="#ff1717" d="M20.737 7.004c0.508 0.016 0.993 0.079 1.461 0.187 0.451 0.102 0.666-0.668 0.163-0.782-0.48-0.113-1.038-0.187-1.609-0.205-0.528-0.016-0.528 0.784-0.014 0.8z"></path>
<path class="path12" fill="#ff1717" d="M23.301 9.067c0.272-0.212 0.514-0.436 0.734-0.68 0.206-0.226 0.404-0.538 0.658-0.704 0.433-0.276 0.032-0.968-0.4-0.691-0.549 0.349-0.875 0.985-1.392 1.384-0.117 0.075-0.193 0.204-0.193 0.351 0 0.072 0.018 0.139 0.050 0.198 0.095 0.167 0.375 0.273 0.546 0.142z"></path>
<path class="path13" fill="#ff1717" d="M25.885 7.952c0.025 0.417-0.037 0.837 0.031 1.252s0.3 0.641 0.516 0.983c0.275 0.433 0.968 0.032 0.691-0.4-0.183-0.288-0.4-0.456-0.435-0.813-0.035-0.337 0.017-0.68 0-1.019-0.031-0.512-0.832-0.515-0.8 0z"></path>
<path class="path14" fill="#ff1717" d="M28 7.161c0.659 0.371 1.348 0.688 1.827 1.292 0.319 0.4 0.881-0.165 0.565-0.565-0.525-0.657-1.276-1.015-1.992-1.417-0.449-0.253-0.853 0.437-0.4 0.691z"></path>
</symbol>
<symbol id="icon-envelop" viewBox="0 0 32 32">
<title>envelop</title>
<path class="path1" d="M29 4h-26c-1.65 0-3 1.35-3 3v20c0 1.65 1.35 3 3 3h26c1.65 0 3-1.35 3-3v-20c0-1.65-1.35-3-3-3zM12.461 17.199l-8.461 6.59v-15.676l8.461 9.086zM5.512 8h20.976l-10.488 7.875-10.488-7.875zM12.79 17.553l3.21 3.447 3.21-3.447 6.58 8.447h-19.579l6.58-8.447zM19.539 17.199l8.461-9.086v15.676l-8.461-6.59z"></path>
</symbol>
<symbol id="icon-facebook2" viewBox="0 0 32 32">
<title>facebook2</title>
<path class="path1" d="M29 0h-26c-1.65 0-3 1.35-3 3v26c0 1.65 1.35 3 3 3h13v-14h-4v-4h4v-2c0-3.306 2.694-6 6-6h4v4h-4c-1.1 0-2 0.9-2 2v2h6l-1 4h-5v14h9c1.65 0 3-1.35 3-3v-26c0-1.65-1.35-3-3-3z"></path>
</symbol>
<symbol id="icon-twitter" viewBox="0 0 32 32">
<title>twitter</title>
<path class="path1" d="M32 7.075c-1.175 0.525-2.444 0.875-3.769 1.031 1.356-0.813 2.394-2.1 2.887-3.631-1.269 0.75-2.675 1.3-4.169 1.594-1.2-1.275-2.906-2.069-4.794-2.069-3.625 0-6.563 2.938-6.563 6.563 0 0.512 0.056 1.012 0.169 1.494-5.456-0.275-10.294-2.888-13.531-6.862-0.563 0.969-0.887 2.1-0.887 3.3 0 2.275 1.156 4.287 2.919 5.463-1.075-0.031-2.087-0.331-2.975-0.819 0 0.025 0 0.056 0 0.081 0 3.181 2.263 5.838 5.269 6.437-0.55 0.15-1.131 0.231-1.731 0.231-0.425 0-0.831-0.044-1.237-0.119 0.838 2.606 3.263 4.506 6.131 4.563-2.25 1.762-5.075 2.813-8.156 2.813-0.531 0-1.050-0.031-1.569-0.094 2.913 1.869 6.362 2.95 10.069 2.95 12.075 0 18.681-10.006 18.681-18.681 0-0.287-0.006-0.569-0.019-0.85 1.281-0.919 2.394-2.075 3.275-3.394z"></path>
</symbol>
<symbol id="icon-appleinc" viewBox="0 0 32 32">
<title>appleinc</title>
<path class="path1" d="M24.734 17.003c-0.040-4.053 3.305-5.996 3.454-6.093-1.88-2.751-4.808-3.127-5.851-3.171-2.492-0.252-4.862 1.467-6.127 1.467-1.261 0-3.213-1.43-5.28-1.392-2.716 0.040-5.221 1.579-6.619 4.012-2.822 4.897-0.723 12.151 2.028 16.123 1.344 1.944 2.947 4.127 5.051 4.049 2.026-0.081 2.793-1.311 5.242-1.311s3.138 1.311 5.283 1.271c2.18-0.041 3.562-1.981 4.897-3.931 1.543-2.255 2.179-4.439 2.216-4.551-0.048-0.022-4.252-1.632-4.294-6.473zM20.705 5.11c1.117-1.355 1.871-3.235 1.665-5.11-1.609 0.066-3.559 1.072-4.713 2.423-1.036 1.199-1.942 3.113-1.699 4.951 1.796 0.14 3.629-0.913 4.747-2.264z"></path>
</symbol>
<symbol id="icon-android" viewBox="0 0 32 32">
<title>android</title>
<path class="path1" d="M28 12c-1.1 0-2 0.9-2 2v8c0 1.1 0.9 2 2 2s2-0.9 2-2v-8c0-1.1-0.9-2-2-2zM4 12c-1.1 0-2 0.9-2 2v8c0 1.1 0.9 2 2 2s2-0.9 2-2v-8c0-1.1-0.9-2-2-2zM7 23c0 1.657 1.343 3 3 3v0 4c0 1.1 0.9 2 2 2s2-0.9 2-2v-4h4v4c0 1.1 0.9 2 2 2s2-0.9 2-2v-4c1.657 0 3-1.343 3-3v-11h-18v11z"></path>
<path class="path2" d="M24.944 10c-0.304-2.746-1.844-5.119-4.051-6.551l1.001-2.001c0.247-0.494 0.047-1.095-0.447-1.342s-1.095-0.047-1.342 0.447l-1.004 2.009-0.261-0.104c-0.893-0.297-1.848-0.458-2.84-0.458s-1.947 0.161-2.84 0.458l-0.261 0.104-1.004-2.009c-0.247-0.494-0.848-0.694-1.342-0.447s-0.694 0.848-0.447 1.342l1.001 2.001c-2.207 1.433-3.747 3.805-4.051 6.551v1h17.944v-1h-0.056zM13 8c-0.552 0-1-0.448-1-1s0.447-0.999 0.998-1c0.001 0 0.002 0 0.003 0s0.001-0 0.002-0c0.551 0.001 0.998 0.448 0.998 1s-0.448 1-1 1zM19 8c-0.552 0-1-0.448-1-1s0.446-0.999 0.998-1c0 0 0.001 0 0.002 0s0.002-0 0.003-0c0.551 0.001 0.998 0.448 0.998 1s-0.448 1-1 1z"></path>
</symbol>
<symbol id="icon-windows8" viewBox="0 0 32 32">
<title>windows8</title>
<path class="path1" d="M0.011 16l-0.011-9.752 12-1.63v11.382zM14 4.328l15.996-2.328v14h-15.996zM30 18l-0.004 14-15.996-2.25v-11.75zM12 29.495l-11.99-1.644-0.001-9.851h11.991z"></path>
</symbol>
<symbol id="icon-html-five" viewBox="0 0 32 32">
<title>html-five</title>
<path class="path1" d="M1.892 0l2.567 28.801 11.524 3.199 11.554-3.204 2.572-28.796h-28.216zM24.52 9.42h-13.517l0.322 3.617h12.874l-0.97 10.844-7.245 2.008-7.237-2.008-0.495-5.547h3.547l0.252 2.82 3.933 1.060 0.009-0.002 3.935-1.062 0.408-4.58h-12.242l-0.953-10.681h17.694l-0.316 3.532z"></path>
</symbol>
</defs>
</svg>
